<svg width="50" height="49" viewBox="0 0 50 49" fill="none" xmlns="http://www.w3.org/2000/svg">
<path d="M46.6394 24.2914C46.6394 36.0241 36.8996 45.5463 24.8744 45.5463C12.8492 45.5463 3.10928 36.0241 3.10928 24.2914C3.10928 12.548 12.8492 3.03641 24.8744 3.03641C36.8996 3.03641 46.6394 12.548 46.6394 24.2914Z" fill="#283544"/>
<path d="M35.0761 18.9129C34.9574 18.9806 32.13 20.4085 32.13 23.5746C32.2633 27.1852 35.698 28.4515 35.7569 28.4515C35.698 28.5191 35.2384 30.1764 33.8768 31.9136C32.7963 33.4101 31.597 34.9188 29.7758 34.9188C28.0435 34.9188 27.4216 33.9215 25.4228 33.9215C23.2762 33.9215 22.6688 34.9188 21.0254 34.9188C19.2042 34.9188 17.9161 33.3292 16.7766 31.8468C15.2963 29.9066 14.0381 26.8619 13.9937 23.9383C13.9638 22.3892 14.2901 20.8663 15.1186 19.5729C16.288 17.7671 18.3757 16.5413 20.6555 16.5008C22.4023 16.4472 23.957 17.5922 25.023 17.5922C26.0447 17.5922 27.9547 16.5008 30.1157 16.5008C31.0485 16.5017 33.536 16.7574 35.0761 18.9129ZM24.8753 16.1915C24.5644 14.7768 25.4228 13.3621 26.2223 12.4596C27.244 11.3682 28.8575 10.6275 30.249 10.6275C30.3378 12.0422 29.7749 13.4297 28.7687 14.4402C27.8658 15.5316 26.3112 16.3532 24.8753 16.1915Z" fill="white"/>
</svg>
