<svg xmlns="http://www.w3.org/2000/svg" version="1.1" xmlns:xlink="http://www.w3.org/1999/xlink" xmlns:svgjs="http://svgjs.com/svgjs" width="512" height="512" x="0" y="0" viewBox="0 0 512 512" style="enable-background:new 0 0 512 512" xml:space="preserve" class=""><g><path d="M413.221 463.766 95.882 477.239 85.121 16.163l333.024-9.477z" style="" fill="#ea5441" data-original="#00c5f4" class=""></path><path d="m180.429 445.167 153.847-4.107s.746-62.87-88.162-50.568c-88.904 12.301-66.307 54.601-66.307 54.601" style="" fill="#ff6ea5" data-original="#ff6ea5"></path><path d="m232.014 466.765-135.884 3.77-4.964-74.984 60.97 55.189 68.304-36.378z" style="" fill="#ff6ea5" data-original="#ff6ea5"></path><path d="m299.11 464.907-67.096 1.858-11.574-52.403 9.852-5.267c4.615 6.837 14.977 18.644 30.908 17.393 12.049-.943 20.607-9.451 25.861-16.847l12.145 4.896-.096 50.37z" style="" fill="#ffffff" data-original="#ffffff" class=""></path><path d="m410.913 461.815-111.803 3.092.096-50.37 70.115 28.231 44.531-61.913z" style="" fill="#ff6ea5" data-original="#ff6ea5"></path><path d="M206.336 416.827h4.286v40.552h-4.286z" style="" transform="rotate(-49.035 208.485 437.114)" fill="#002d51" data-original="#002d51" class=""></path><path d="M294.556 427.294h34.391v4.285h-34.391z" style="" transform="rotate(-69.318 311.736 429.416)" fill="#002d51" data-original="#002d51" class=""></path><path d="M357.563 364.352c-27.133 37.028-86.633 17.265-86.633 17.265l4.047 23.153 12.084 4.87c-5.254 7.397-13.812 15.904-25.861 16.847-15.932 1.251-26.293-10.555-30.908-17.393l11.05-5.877-20.787-72.294s-50.803 21.566-67.257-3.083c-14.714-22.065 7.251-40.268 28.359-29.496l1.438 15.11 18.617.799-9.176-16.432s40.274-2.827 7.329-60.766l18.115-12.925-2.922 12.232s45.761-27.549 22.701-50.579c11.646-.819 25.079 1.278 40.368 7.827 72.54 31.048 106.563 133.734 79.436 170.742z" style="" fill="#ffa200" data-original="#ffa200" class=""></path><path d="M250.085 288.231c-.578 4.784-3.307 8.39-6.099 8.055-2.79-.337-4.585-4.49-4.008-9.273.577-4.784 3.31-8.389 6.099-8.054 2.789.335 4.584 4.488 4.008 9.272zM319.493 275.017c-.576 4.785-3.309 8.392-6.096 8.055-2.793-.338-4.586-4.49-4.012-9.274.578-4.783 3.309-8.39 6.1-8.054 2.791.338 4.584 4.49 4.008 9.273z" style="" fill="#002d51" data-original="#002d51" class=""></path><path d="M233.91 264.151h35.427v10.715H233.91z" style="" transform="rotate(-18.656 251.597 269.485)" fill="#002d51" data-original="#002d51" class=""></path><path d="M303.136 252.336h32.129v10.715h-32.129z" style="" transform="translate(-1.36 1.693)" fill="#002d51" data-original="#002d51" class=""></path><path d="M269.798 334.619c-1.51 9.855-6.859 36.452-20.296 36.751-16.498.386-11.665-46.457-11.665-46.457l31.961 9.706z" style="" fill="#002d51" data-original="#002d51" class=""></path><path d="M248.2 372.379c-15.953-1.924-11.624-45.713-11.43-47.575l.134-1.293 34.095 10.353-.143.917c-1.721 11.22-7.244 37.347-21.332 37.662a9.421 9.421 0 0 1-1.324-.064zm-9.423-46.06c-1.157 12.927-1.447 42.59 9.681 43.933.328.04.668.056 1.018.048 12.376-.277 17.623-25.683 19.119-34.928l-29.818-9.053z" style="" fill="#002d51" data-original="#002d51" class=""></path><path d="M248.052 373.454c-2.345-.285-4.417-1.387-6.174-3.287-9.669-10.472-6.321-44.049-6.175-45.473l.267-2.585 38.869 11.799-2.383-11.652 28.836 1.642-11.211-46.25 4.166-1.01 12.574 51.868-29.049-1.655 2.707 13.246-8.881-2.695c-1.256 8.64-6.436 35.76-22.05 36.121a10.55 10.55 0 0 1-1.496-.069zm-8.316-45.724c-.816 10.667-1.072 32.637 5.292 39.53 1.266 1.369 2.71 2.022 4.422 1.977 11.306-.261 16.603-22.526 18.007-33.092l-27.721-8.415z" style="" fill="#002d51" data-original="#002d51" class=""></path><path d="m240.171 327.974 26.227 7.703-.863 7.148-13.486 1.611 12.843 3.708s-7.91 21.516-17.397 20.372c-12.299-1.483-7.324-40.542-7.324-40.542z" style="" fill="#ffffff" data-original="#ffffff" class=""></path><path d="M181.46 328.141c-.308-.373-2.984-3.75-2.557-7.395.208-1.761 1.109-3.293 2.612-4.434a6.884 6.884 0 0 1 2.619-1.238c-4.605-2.823-10.636-5.255-16.904-4.263-3.627.576-5.889 1.8-6.721 3.638-1.352 2.984 1.151 7.09 1.177 7.132l-3.623 2.289c-.156-.246-3.773-6.077-1.458-11.19 1.465-3.232 4.813-5.286 9.953-6.102 15.39-2.443 28.601 11.699 29.155 12.303l-2.898 3.139c-1.505-1.172-6.329-4.102-8.704-2.298-.76.576-.906 1.146-.948 1.523-.19 1.61 1.222 3.704 1.61 4.176l-3.313 2.72z" style="" fill="#002d51" data-original="#002d51" class=""></path><path d="M240.113 181.115c-46.81 3.183-67.074 49.553-67.074 49.553l6.836 71.31 1.541 16.225 24.606.534-9.363-19.323s41.618.032 6.243-62.179l13.204-9.561-2.711 13.525s13.008-8.995 22.072-18.924l2.519 14.155c-.001 0 62.153-51.569 2.127-55.315z" style="" fill="#002d51" data-original="#002d51" class=""></path><path d="M333.501 236.612c-18.465-2.226-35.424 12.019-37.807 31.756-.006.059-.006.118-.01.177l-9.131 1.242c-4.85-10.325-14.32-17.894-25.916-19.293-18.461-2.227-35.422 12.018-37.802 31.754-.184 1.522-.245 3.026-.249 4.521l-45.498 8.956 2.067 10.514 44.921-8.843c3.786 13.009 14.398 23.053 27.926 24.686 18.464 2.227 35.425-12.018 37.806-31.753a37.853 37.853 0 0 0-1.645-16.435l7.281-.991c-.043 17.865 12.383 33.241 29.42 35.296 18.465 2.227 35.422-12.017 37.803-31.753 2.381-19.736-10.703-37.606-29.166-39.834zm-80.982 81.214c-16.119-1.944-27.525-17.674-25.428-35.064 2.098-17.39 16.916-29.957 33.035-28.012 16.117 1.944 27.523 17.675 25.43 35.063-2.1 17.391-16.921 29.957-33.037 28.013zm72.859-13.882c-16.117-1.945-27.525-17.675-25.43-35.063 2.1-17.391 16.92-29.957 33.037-28.013 16.117 1.945 27.527 17.674 25.43 35.065-2.098 17.388-16.92 29.955-33.037 28.011z" style="" fill="#5f52bb" data-original="#5f52bb" class=""></path><path d="m444.682 0-377 5.599L85.753 512l341.869-30.534L444.682 0zM92.437 22.982l315.982-8.663-5.967 437.085-293.899 8.842L92.437 22.982z" style="" fill="#5f52bb" data-original="#5f52bb" class=""></path><path d="M148.446 162.539H370.5v10.716H148.446z" style="" transform="rotate(-3.714 259.33 167.91)" fill="#002d51" data-original="#002d51" class=""></path><path d="M146.947 132.465H369v10.715H146.947z" style="" transform="rotate(-3.681 257.998 137.834)" fill="#002d51" data-original="#002d51" class=""></path><path d="M144.133 105.321h222.054v10.716H144.133z" style="" transform="rotate(-3.714 255.028 110.71)" fill="#002d51" data-original="#002d51" class=""></path><path d="M246.545 86.434c-1.798 2.796-3.72 5.17-5.765 7.118-2.049 1.949-4.141 3.415-6.275 4.406-2.136.988-4.233 1.542-6.284 1.662-2.052.121-3.953-.234-5.696-1.063-1.743-.828-3.298-2.132-4.665-3.914-1.368-1.782-2.513-4.007-3.434-6.681-.922-2.671-1.486-5.828-1.7-9.474a67.32 67.32 0 0 1 1.506-18.584c1.368-6.163 3.469-11.753 6.299-16.773 2.832-5.016 6.297-9.127 10.399-12.324 4.102-3.198 8.735-4.948 13.904-5.25 1.586-.093 3.13.149 4.626.727a11.202 11.202 0 0 1 3.939 2.561c1.129 1.132 2.059 2.541 2.789 4.225.73 1.688 1.158 3.588 1.283 5.709.023.397.047.812.074 1.242.022.432.014.882-.021 1.348l-12.818 4.24c-.889-1.61-1.866-2.384-2.925-2.322-1.061.062-2.135.742-3.223 2.032-1.088 1.295-2.14 2.952-3.15 4.972-1.014 2.021-1.978 4.27-2.897 6.752a79.994 79.994 0 0 0-3.882 14.586c-.366 2.248-.511 4.067-.429 5.458.124 2.123.492 3.597 1.107 4.423.611.83 1.383 1.217 2.31 1.162.729-.042 1.542-.373 2.434-.99.896-.617 1.715-1.396 2.458-2.338a19.31 19.31 0 0 0 2.009-3.158c.597-1.165.995-2.317 1.193-3.46l11.595 3.909c-1.377 3.735-2.965 7-4.761 9.799zM257.178 98.626c.318-9.325.582-18.482.789-27.468.113-3.729.197-7.656.258-11.781.059-4.125.084-8.199.084-12.221a545.14 545.14 0 0 0-.135-11.66c-.088-3.75-.188-7.185-.303-10.302 1.59-.093 3.293-.227 5.113-.4 1.816-.172 3.469-.336 4.955-.489 1.486-.151 3.285-.392 5.393-.713-.281 7.728-.539 14.077-.781 19.041-.244 4.969-.42 9-.539 12.1a610.31 610.31 0 0 0-.275 8.938c-.064 2.864-.16 5.529-.281 7.995a848.24 848.24 0 0 1-.33 6.301l1.791-.105 8.039-53.519a149.4 149.4 0 0 0 5.445-.617c1.65-.228 3.387-.429 5.205-.602a53.816 53.816 0 0 0 4.994-.693 234.75 234.75 0 0 0-2.268 9.806 7811.6 7811.6 0 0 0-2.346 11.105 495.237 495.237 0 0 0-2.307 11.704c-.732 3.965-1.457 7.796-2.17 11.494a2162.924 2162.924 0 0 0-4.816 26.707l-25.515 5.379z" style="" fill="#002d51" data-original="#002d51" class=""></path><path d="m86.911 349.147 7.346 55.428s-48.933 29.857-32.949-54.919l25.603-.509z" style="" fill="#ffa200" data-original="#ffa200" class=""></path><path d="M61.92 359.943h26.604v4.285H61.92z" style="" transform="rotate(-4.863 75.333 362.187)" fill="#002d51" data-original="#002d51" class=""></path><path d="M61.232 377.749h29.636v4.284H61.232z" style="" transform="rotate(-9.836 76.083 379.915)" fill="#002d51" data-original="#002d51" class=""></path><path d="M65.531 392.933h27.363v4.287H65.531z" style="" transform="rotate(-10.199 79.253 395.159)" fill="#002d51" data-original="#002d51" class=""></path><path d="m422.53 329.744 21.773-1.556s32.316 72.119-21.652 60.211l-.121-58.655z" style="" fill="#ffa200" data-original="#ffa200" class=""></path><path d="M424.064 371.409h27.401v4.285h-27.401z" style="" transform="rotate(-1.255 437.636 373.445)" fill="#002d51" data-original="#002d51" class=""></path><path d="M434.482 344.413h4.286v26.21h-4.286z" style="" transform="rotate(-88.825 436.621 357.514)" fill="#002d51" data-original="#002d51" class=""></path><path d="M422.556 340.202h24.356v4.285h-24.356z" style="" fill="#002d51" data-original="#002d51" class=""></path></g></svg>