<svg id="Layer_1" data-name="Layer 1" xmlns="http://www.w3.org/2000/svg" viewBox="0 0 836.43 337.02"><defs><style>.cls-1{fill:#c21010;}.cls-2{fill:#fff;}.cls-3{fill:none;stroke:#c21010;stroke-linecap:round;stroke-miterlimit:10;stroke-width:9px;}</style></defs><path class="cls-1" d="M205.15,71.94a28.49,28.49,0,0,0-28.38,26.5h56.76A28.48,28.48,0,0,0,205.15,71.94Zm0,0a28.49,28.49,0,0,0-28.38,26.5h56.76A28.48,28.48,0,0,0,205.15,71.94Zm0-31a13.34,13.34,0,1,0,13.34,13.34A13.34,13.34,0,0,0,205.15,40.9Zm0,31a28.49,28.49,0,0,0-28.38,26.5h56.76A28.48,28.48,0,0,0,205.15,71.94Zm0,0a28.49,28.49,0,0,0-28.38,26.5h56.76A28.48,28.48,0,0,0,205.15,71.94Zm0-4.36a13.34,13.34,0,1,0-13.34-13.34A13.34,13.34,0,0,0,205.15,67.58ZM309.44,88.8,214.93,29.07a20.55,20.55,0,0,0-28.35,6.4l-84.32,133.4-1.34,2.1-1.34,2.14a37.44,37.44,0,0,1,2.33,3.55,18.65,18.65,0,0,1,1.24,2.83,9.51,9.51,0,0,1,.58,3.16,11.35,11.35,0,0,1-11.3,11.29,9.4,9.4,0,0,1-5.17-1.34,7.62,7.62,0,0,1-.8-.56,20.35,20.35,0,0,1-4.15-4.73A14.94,14.94,0,0,0,76.82,182a29.44,29.44,0,0,0-7.3-2.82,24.69,24.69,0,0,0-3-.18,18.63,18.63,0,0,0-7.32,1.43,19.75,19.75,0,0,0-5.81,3.73,17.31,17.31,0,0,0-4,5.66,16.54,16.54,0,0,0-1.49,7v26.58a16.51,16.51,0,0,0,1.24,7.23,17.38,17.38,0,0,0,4,5.89,20.35,20.35,0,0,0,6,4A19.2,19.2,0,0,0,66.85,242h2c.43-.1.85-.17,1.26-.28a22.75,22.75,0,0,0,6.72-2.54,17,17,0,0,0,5.49-5.33,23.19,23.19,0,0,1,3.82-4.64c1.32-1.22,3.48-1.84,6.47-1.84a11.22,11.22,0,0,1,11.13,11.31,8.51,8.51,0,0,1-.58,3.15c-.39,1-.86,2.05-1.41,3.16a35.59,35.59,0,0,1-11.19,12l2.15,1.34,2.14,1.37L171,307.82a20.58,20.58,0,0,0,28.37-6.4l46.89-74.19a38.62,38.62,0,0,1-.19-3.88V167.7a10.85,10.85,0,0,1,1.27-5,14.93,14.93,0,0,1,3-3.93,14.14,14.14,0,0,1,4.08-2.7,10.26,10.26,0,0,1,4.86-.86,10.9,10.9,0,0,1,5.12.95,15.31,15.31,0,0,1,4.2,2.86,12.06,12.06,0,0,1,3,4.38,13.73,13.73,0,0,1,1,5.13V184c.46-.19.93-.36,1.4-.54l41.89-66.26A20.57,20.57,0,0,0,309.44,88.8ZM201.75,172.68l-34.23,83.56a11.39,11.39,0,0,1-4.23,5.32,10.75,10.75,0,0,1-6.22,2,10.42,10.42,0,0,1-6.16-2.17,12.56,12.56,0,0,1-4.31-5.15l-34.74-83.56a10.77,10.77,0,0,1,.26-8.55,11.47,11.47,0,0,1,6.23-6.07,10.72,10.72,0,0,1,8.56.25,10.83,10.83,0,0,1,5.89,6.4l24.27,56.81L181,164.71a10.82,10.82,0,0,1,5.9-6.4,10.69,10.69,0,0,1,8.55-.25,11.14,11.14,0,0,1,6.15,6.07A10.9,10.9,0,0,1,201.75,172.68Zm35.78-70.32H172.79v-2a32.41,32.41,0,0,1,23.76-31.21,17.26,17.26,0,1,1,17.2,0,32.42,32.42,0,0,1,23.78,31.21ZM205.15,71.94a28.49,28.49,0,0,0-28.38,26.5h56.76A28.48,28.48,0,0,0,205.15,71.94Zm13.34-17.7a13.34,13.34,0,1,0-13.34,13.34A13.34,13.34,0,0,0,218.49,54.24ZM205.15,40.9a13.34,13.34,0,1,0,13.34,13.34A13.34,13.34,0,0,0,205.15,40.9Zm0,31a28.49,28.49,0,0,0-28.38,26.5h56.76A28.48,28.48,0,0,0,205.15,71.94Zm0,0a28.49,28.49,0,0,0-28.38,26.5h56.76A28.48,28.48,0,0,0,205.15,71.94Zm0-31a13.34,13.34,0,1,0,13.34,13.34A13.34,13.34,0,0,0,205.15,40.9Zm62.69,150.59v-23a9.06,9.06,0,0,0-.66-3.37,7.55,7.55,0,0,0-1.85-2.74,11.28,11.28,0,0,0-2.93-2,5.87,5.87,0,0,0-3-.53l-.19,0-.19,0a3.59,3.59,0,0,0-.47,0,5.75,5.75,0,0,0-2.3.5,9.45,9.45,0,0,0-2.73,1.8,10.2,10.2,0,0,0-2,2.7,6,6,0,0,0-.74,2.82v52.39l18.58-29.37Z"/><path class="cls-2" d="M92.6,225c-3.65,0-6.28.8-8,2.45a26,26,0,0,0-4.22,5.09,14.47,14.47,0,0,1-4.73,4.61,20.42,20.42,0,0,1-6.12,2.27c-.23.07-.48.13-.73.18l-.16,0H66.85a17,17,0,0,1-6.77-1.29,18.29,18.29,0,0,1-5.3-3.52,15,15,0,0,1-3.44-5.11,14.43,14.43,0,0,1-1.07-6.34V196.77a14.25,14.25,0,0,1,1.28-6A14.9,14.9,0,0,1,55,185.86a17.51,17.51,0,0,1,5.12-3.29,16.28,16.28,0,0,1,6.41-1.24,20.75,20.75,0,0,1,2.56.15A27.17,27.17,0,0,1,75.64,184a12.48,12.48,0,0,1,4.69,4.57A22.66,22.66,0,0,0,85,193.86a8.15,8.15,0,0,0,1,.73,11.77,11.77,0,0,0,6.43,1.7,13.71,13.71,0,0,0,13.65-13.64,11.57,11.57,0,0,0-.72-4,20.47,20.47,0,0,0-1.41-3.21,39.66,39.66,0,0,0-2.46-3.76l-.57-.76a38.5,38.5,0,0,0-11.8-10.29,40.47,40.47,0,0,0-13.3-4.77,45,45,0,0,0-9.14-.86,43.13,43.13,0,0,0-17.19,3.34A42,42,0,0,0,36,167.54a42.65,42.65,0,0,0-9,13.53A42.13,42.13,0,0,0,23.8,197.6v27.07a38.43,38.43,0,0,0,3.54,16.44,42.81,42.81,0,0,0,9.31,13.09,41.41,41.41,0,0,0,13.54,8.62,44.31,44.31,0,0,0,16.49,3.09h1.5a41.76,41.76,0,0,0,21.13-5.4c1-.59,1.85-1.11,2.56-1.61.28-.19.56-.38.83-.6A37.77,37.77,0,0,0,103.86,246c.58-1.2,1.08-2.29,1.47-3.34a10.67,10.67,0,0,0,.75-4A13.57,13.57,0,0,0,92.6,225Zm10.55,16.81c-.39,1-.86,2.05-1.41,3.16a35.59,35.59,0,0,1-11.19,12c-.78.55-1.6,1.05-2.43,1.53a39.37,39.37,0,0,1-19.94,5.07h-1.5a41.82,41.82,0,0,1-15.61-2.92,39.1,39.1,0,0,1-12.79-8.13,40.7,40.7,0,0,1-8.81-12.39,36,36,0,0,1-3.32-15.45V197.6a39.94,39.94,0,0,1,24.26-37,40.67,40.67,0,0,1,16.27-3.15,41.27,41.27,0,0,1,8.65.82A38,38,0,0,1,88,162.72a36.12,36.12,0,0,1,11.63,10.39,37.44,37.44,0,0,1,2.33,3.55,18.65,18.65,0,0,1,1.24,2.83,9.51,9.51,0,0,1,.58,3.16,11.35,11.35,0,0,1-11.3,11.29,9.4,9.4,0,0,1-5.17-1.34,7.62,7.62,0,0,1-.8-.56,20.35,20.35,0,0,1-4.15-4.73A14.94,14.94,0,0,0,76.82,182a29.44,29.44,0,0,0-7.3-2.82,24.69,24.69,0,0,0-3-.18,18.63,18.63,0,0,0-7.32,1.43,19.75,19.75,0,0,0-5.81,3.73,17.31,17.31,0,0,0-4,5.66,16.54,16.54,0,0,0-1.49,7v26.58a16.51,16.51,0,0,0,1.24,7.23,17.38,17.38,0,0,0,4,5.89,20.35,20.35,0,0,0,6,4A19.2,19.2,0,0,0,66.85,242h2c.43-.1.85-.17,1.26-.28a22.75,22.75,0,0,0,6.72-2.54,17,17,0,0,0,5.49-5.33,23.19,23.19,0,0,1,3.82-4.64c1.32-1.22,3.48-1.84,6.47-1.84a11.22,11.22,0,0,1,11.13,11.31A8.51,8.51,0,0,1,103.15,241.79Z"/><path class="cls-1" d="M92.6,222.63c-4.21,0-7.46,1-9.67,3.09a27.8,27.8,0,0,0-4.57,5.55,12.23,12.23,0,0,1-4,3.84,18.19,18.19,0,0,1-5.34,2H69l-.1,0-.53.13H66.85a14.69,14.69,0,0,1-5.84-1.1,15.81,15.81,0,0,1-4.61-3.07,12.65,12.65,0,0,1-2.9-4.31,11.73,11.73,0,0,1-.88-5.19V196.77a11.89,11.89,0,0,1,1.07-5,12.62,12.62,0,0,1,2.91-4.17A15.55,15.55,0,0,1,61,184.74a13.8,13.8,0,0,1,5.48-1.05,17.76,17.76,0,0,1,2.12.11A24.5,24.5,0,0,1,74.45,186a10.43,10.43,0,0,1,3.83,3.68l0,.06,0,.07a24.63,24.63,0,0,0,5.1,5.81,12.3,12.3,0,0,0,1.35,1,14,14,0,0,0,7.62,2,15.62,15.62,0,0,0,11.32-4.72,15.45,15.45,0,0,0,4.68-11.27,14.36,14.36,0,0,0-.84-4.73,25.41,25.41,0,0,0-1.57-3.56l0,0,0,0a41,41,0,0,0-2.6-4c-.36-.49-.72-1-1.11-1.45a41.1,41.1,0,0,0-12-10.25,43.32,43.32,0,0,0-14-5,47,47,0,0,0-9.54-.89,45.35,45.35,0,0,0-18.13,3.54,44.1,44.1,0,0,0-14.2,9.66,44.9,44.9,0,0,0-12.9,31.7v27.07a40.86,40.86,0,0,0,3.76,17.44A45.41,45.41,0,0,0,35,255.91a43.75,43.75,0,0,0,14.3,9.1,46.65,46.65,0,0,0,17.34,3.25h1.5a44.25,44.25,0,0,0,22.28-5.69c1.11-.64,2-1.19,2.75-1.74.57-.38,1.1-.77,1.63-1.16a40.25,40.25,0,0,0,11-12.4l.06-.11L106,247c.62-1.27,1.14-2.43,1.56-3.55a13,13,0,0,0,.91-4.85,15.93,15.93,0,0,0-15.83-16Zm10.55,19.16c-.39,1-.86,2.05-1.41,3.16a35.59,35.59,0,0,1-11.19,12c-.78.55-1.6,1.05-2.43,1.53a39.37,39.37,0,0,1-19.94,5.07h-1.5a41.82,41.82,0,0,1-15.61-2.92,39.1,39.1,0,0,1-12.79-8.13,40.7,40.7,0,0,1-8.81-12.39,36,36,0,0,1-3.32-15.45V197.6a39.94,39.94,0,0,1,24.26-37,40.67,40.67,0,0,1,16.27-3.15,41.27,41.27,0,0,1,8.65.82A38,38,0,0,1,88,162.72a36.12,36.12,0,0,1,11.63,10.39,37.44,37.44,0,0,1,2.33,3.55,18.65,18.65,0,0,1,1.24,2.83,9.51,9.51,0,0,1,.58,3.16,11.35,11.35,0,0,1-11.3,11.29,9.4,9.4,0,0,1-5.17-1.34,7.62,7.62,0,0,1-.8-.56,20.35,20.35,0,0,1-4.15-4.73A14.94,14.94,0,0,0,76.82,182a29.44,29.44,0,0,0-7.3-2.82,24.69,24.69,0,0,0-3-.18,18.63,18.63,0,0,0-7.32,1.43,19.75,19.75,0,0,0-5.81,3.73,17.31,17.31,0,0,0-4,5.66,16.54,16.54,0,0,0-1.49,7v26.58a16.51,16.51,0,0,0,1.24,7.23,17.38,17.38,0,0,0,4,5.89,20.35,20.35,0,0,0,6,4A19.2,19.2,0,0,0,66.85,242h2c.43-.1.85-.17,1.26-.28a22.75,22.75,0,0,0,6.72-2.54,17,17,0,0,0,5.49-5.33,23.19,23.19,0,0,1,3.82-4.64c1.32-1.22,3.48-1.84,6.47-1.84a11.22,11.22,0,0,1,11.13,11.31A8.51,8.51,0,0,1,103.15,241.79Z"/><path d="M326.1,207.65a38.52,38.52,0,0,0-19.53-20.27,42.13,42.13,0,0,0-24.32-3.65,38.9,38.9,0,0,0-10.47,3.12c-.54.25-1,.52-1.59.79V168.53a11.52,11.52,0,0,0-.83-4.25,9.86,9.86,0,0,0-2.41-3.56,13,13,0,0,0-3.57-2.41,8.3,8.3,0,0,0-4.16-.75,8.05,8.05,0,0,0-3.9.66,12,12,0,0,0-3.4,2.25,11.85,11.85,0,0,0-2.49,3.33,8.39,8.39,0,0,0-1,3.9v55.65a3.24,3.24,0,0,0,0,.44,36.87,36.87,0,0,0,3.31,15,42.54,42.54,0,0,0,21.77,21.5,37.28,37.28,0,0,0,15.28,3.25,38.32,38.32,0,0,0,15.45-3.17A40.4,40.4,0,0,0,317,251.75,41.9,41.9,0,0,0,325.77,239,38,38,0,0,0,329,223.35,40.21,40.21,0,0,0,326.1,207.65Zm-18,23.87a20.64,20.64,0,0,1-4.58,6.64,22.86,22.86,0,0,1-6.67,4.46,19.86,19.86,0,0,1-8,1.69,19.63,19.63,0,0,1-8.11-1.71,22.61,22.61,0,0,1-6.56-4.44,20.85,20.85,0,0,1-4.6-6.64,20.26,20.26,0,0,1-1.69-8.17,19.41,19.41,0,0,1,1.69-7.83,21.82,21.82,0,0,1,4.57-6.71,23.23,23.23,0,0,1,6.55-4.61,19.58,19.58,0,0,1,16.16-.11,22.87,22.87,0,0,1,6.67,4.44,20.86,20.86,0,0,1,4.58,6.64,20.62,20.62,0,0,1,0,16.35Z"/><path d="M349.27,183a11.22,11.22,0,0,1,11,11.13v29.24a17.73,17.73,0,0,0,1.49,7.23,18.81,18.81,0,0,0,9.89,9.88,17.65,17.65,0,0,0,7.22,1.5,18.56,18.56,0,0,0,7-1.33,19.64,19.64,0,0,0,5.9-3.66,16.88,16.88,0,0,0,4.07-5.65,17.11,17.11,0,0,0,1.49-7.14V193.94a10.56,10.56,0,0,1,3.16-7.47,10.7,10.7,0,0,1,7.64-3.49,11.4,11.4,0,0,1,11.13,10.47v29.9A39.07,39.07,0,0,1,416.06,239a40.59,40.59,0,0,1-21.43,21.43,39.51,39.51,0,0,1-15.79,3.15,35.18,35.18,0,0,1-15.28-2.74,41.24,41.24,0,0,1-21.76-21.1,35.86,35.86,0,0,1-3.33-15.2V193.94a11.06,11.06,0,0,1,10.8-11Z"/><path d="M440.48,158.22a9.82,9.82,0,0,1,7.39,3.24,10.84,10.84,0,0,1,0,15.12,9.82,9.82,0,0,1-7.39,3.24,11.58,11.58,0,0,1-7.89-3.07c-2.06-1.94-3.08-4.68-3.08-8.22a10.13,10.13,0,0,1,3.41-7.31A10.76,10.76,0,0,1,440.48,158.22Zm0,25.42a9.43,9.43,0,0,1,7.22,3.16,12.25,12.25,0,0,1,3.24,7.64v58.81a10.48,10.48,0,0,1-2.82,7.48,11.14,11.14,0,0,1-7.64,3.32,10.55,10.55,0,0,1-7.31-2.66,11.69,11.69,0,0,1-3.66-7.47V193.78a10.33,10.33,0,0,1,3.49-7.15A11.58,11.58,0,0,1,440.48,183.64Z"/><path d="M472.71,157.89a10.16,10.16,0,0,1,7.56,3.16,12.08,12.08,0,0,1,3.4,7.81v65.62a8,8,0,0,0,2.16,5.65,7.16,7.16,0,0,0,5.48,2.32,10.81,10.81,0,0,1,7.56,3,10.17,10.17,0,0,1,.67,14.54,11.47,11.47,0,0,1-7.06,3.74h-2.33a25.46,25.46,0,0,1-11-2.41,30.62,30.62,0,0,1-9.06-6.4,29.57,29.57,0,0,1-6.15-9.3,28.41,28.41,0,0,1-2.24-11.13V168.19a11.85,11.85,0,0,1,3.49-7.14A10.76,10.76,0,0,1,472.71,157.89Z"/><path d="M575.54,157.73a10.63,10.63,0,0,1,7.56,3.07,10.4,10.4,0,0,1,3.24,7.89v54.66a37.68,37.68,0,0,1-3.24,15.45,41.21,41.21,0,0,1-8.81,12.79,42.92,42.92,0,0,1-12.87,8.72,37.31,37.31,0,0,1-15.28,3.24,38.26,38.26,0,0,1-15.29-3.15A42,42,0,0,1,518,251.76,42.43,42.43,0,0,1,509.09,239a37.25,37.25,0,0,1-3.32-15.62A37.68,37.68,0,0,1,509,207.9a41.18,41.18,0,0,1,8.8-12.79,42.87,42.87,0,0,1,12.88-8.73,37.68,37.68,0,0,1,15.45-3.24,38.83,38.83,0,0,1,18.44,4.49v-19.1a9.87,9.87,0,0,1,.91-4.16,11.89,11.89,0,0,1,2.41-3.49,10.76,10.76,0,0,1,3.49-2.32A10.57,10.57,0,0,1,575.54,157.73Zm-29.4,47a17.74,17.74,0,0,0-7.23,1.5,19.16,19.16,0,0,0-6,4.07,19.45,19.45,0,0,0-4.07,6,17.32,17.32,0,0,0-1.5,7.06,17.74,17.74,0,0,0,1.5,7.23,18.37,18.37,0,0,0,4.07,5.89,20,20,0,0,0,6,4,17.74,17.74,0,0,0,7.23,1.5,16.74,16.74,0,0,0,7-1.5,19.85,19.85,0,0,0,10-10,17.12,17.12,0,0,0,1.5-7.14,18.11,18.11,0,0,0-1.5-7.39,18.41,18.41,0,0,0-4.07-5.9,19.4,19.4,0,0,0-5.9-3.91A17.65,17.65,0,0,0,546.14,204.74Z"/><path d="M635.68,183.14A36.42,36.42,0,0,1,651,186.47a43.34,43.34,0,0,1,12.88,8.89,43.9,43.9,0,0,1,8.89,12.79,36,36,0,0,1,3.32,15.2,8.12,8.12,0,0,1-3.24,6.81,12.13,12.13,0,0,1-8.06,2.33H620.56q5.49,9.47,15.12,9.47a17.36,17.36,0,0,0,4.48-.5,19.93,19.93,0,0,0,3.24-1.16,28.21,28.21,0,0,1,2.83-1.17,9.76,9.76,0,0,1,3.24-.5,11.24,11.24,0,0,1,9.88,6.57,10.57,10.57,0,0,1,.83,5.89,10.35,10.35,0,0,1-2.9,5.82,25.79,25.79,0,0,1-10,5.07,52.23,52.23,0,0,1-11.63,1.57,33.74,33.74,0,0,1-15.28-2.9,42.21,42.21,0,0,1-12.88-8.81,41.74,41.74,0,0,1-8.81-13,38.62,38.62,0,0,1-3.24-15.45,37.11,37.11,0,0,1,3.24-15.12,43,43,0,0,1,8.73-12.87,42.18,42.18,0,0,1,12.79-8.89A36.82,36.82,0,0,1,635.68,183.14Zm15.12,30.91a17.42,17.42,0,0,0-23.68-7.23,17.59,17.59,0,0,0-6.56,7.23Z"/><path d="M694.33,263.72a10.3,10.3,0,0,1-7.48-2.91,11.42,11.42,0,0,1-3.32-7.72V222.35a37.53,37.53,0,0,1,3.4-15,40.42,40.42,0,0,1,8.64-12.3,41,41,0,0,1,12.63-8.3,43.41,43.41,0,0,1,15.36-3.41,10.37,10.37,0,0,1,7.73,3.16,11.9,11.9,0,0,1,3.41,7.64,10.16,10.16,0,0,1-3.16,7.56,11.38,11.38,0,0,1-7.81,3.24,18.18,18.18,0,0,0-13,5.31,19.11,19.11,0,0,0-4,5.9,18.16,18.16,0,0,0-1.5,7.4v30.23a10.77,10.77,0,0,1-3.24,7.15A10.62,10.62,0,0,1,694.33,263.72Z"/><path d="M795,182.81a9.56,9.56,0,0,1,7.48,3.41,10.83,10.83,0,0,1,3,7.23,10.34,10.34,0,0,1-3.24,7.55,10,10,0,0,1-7.23,3.24H766.43a5.17,5.17,0,0,0-3.41,1.17,4,4,0,0,0-1.41,3.32A4.51,4.51,0,0,0,763,212.3a5,5,0,0,0,3.41,1.25H785.2a21.38,21.38,0,0,1,9.55,2.16,25.27,25.27,0,0,1,7.64,5.73,29.65,29.65,0,0,1,5.07,7.56,21.27,21.27,0,0,1,1.83,9,24,24,0,0,1-1.91,10.3,24.43,24.43,0,0,1-5.57,8.14,25.78,25.78,0,0,1-8.14,5.23,27.21,27.21,0,0,1-10.47,1.91H752.64a10.46,10.46,0,0,1-7.48-3,9.84,9.84,0,0,1-3.16-7.47,11.2,11.2,0,0,1,3-7.56A9.91,9.91,0,0,1,752.3,242h30.57q4.49,0,4.49-4,0-4.49-4.49-4.49H764.6a21.76,21.76,0,0,1-9.39-2.07,23.74,23.74,0,0,1-7.64-5.73,29.13,29.13,0,0,1-5.07-8,23.59,23.59,0,0,1-1.83-9.3,25.19,25.19,0,0,1,1.91-9.64,26.1,26.1,0,0,1,5.24-8.14,25.21,25.21,0,0,1,7.81-5.56,24.8,24.8,0,0,1,9.8-2.25Z"/><line class="cls-3" x1="248.42" y1="292.45" x2="809.3" y2="292.45"/></svg>