<svg width="16" height="16" viewBox="0 0 16 16" fill="none" xmlns="http://www.w3.org/2000/svg">
<path d="M13.7778 6.66669H9.33336V2.22225C9.33336 1.86863 9.19288 1.52949 8.94284 1.27944C8.69279 1.02939 8.35365 0.888916 8.00003 0.888916C7.64641 0.888916 7.30727 1.02939 7.05722 1.27944C6.80717 1.52949 6.66669 1.86863 6.66669 2.22225V6.66669H2.22225C1.86863 6.66669 1.52949 6.80717 1.27944 7.05722C1.02939 7.30727 0.888916 7.64641 0.888916 8.00003C0.888916 8.35365 1.02939 8.69279 1.27944 8.94284C1.52949 9.19288 1.86863 9.33336 2.22225 9.33336H6.66669V13.7778C6.66669 14.1314 6.80717 14.4706 7.05722 14.7206C7.30727 14.9707 7.64641 15.1111 8.00003 15.1111C8.35365 15.1111 8.69279 14.9707 8.94284 14.7206C9.19288 14.4706 9.33336 14.1314 9.33336 13.7778V9.33336H13.7778C14.1314 9.33336 14.4706 9.19288 14.7206 8.94284C14.9707 8.69279 15.1111 8.35365 15.1111 8.00003C15.1111 7.64641 14.9707 7.30727 14.7206 7.05722C14.4706 6.80717 14.1314 6.66669 13.7778 6.66669Z" fill="white"/>
</svg>
